<svg height="512" width="512" xmlns="http://www.w3.org/2000/svg"><path d="M245.002 10.998c-83.596 0-157.4 41.878-201.614 105.789L.412 241.918A248.93 248.93 0 000 256c0 28.818 4.991 56.467 14.13 82.149l46.663 79.368c44.904 51.172 110.779 83.485 184.209 83.485 135.311 0 245.002-109.691 245.002-245.002S380.313 10.998 245.002 10.998z" fill="#1c2e7a"/><path d="M132.471 105.582c-28.579-18.294-65.98-13.409-88.378 10.486-.241.235-.468.482-.706.719C18.537 152.71 3.038 195.589.412 241.918h72.357c7.528 0 11.066-9.184 5.578-14.337l-.197-.185c-16.014-15.147-23.209-33.612-23.207-51.438 1.907-41.708 48.577-66.39 84.234-43.566 14.25 9.122 22.849 23.741 24.811 39.311 2.835-25.402-8.533-51.408-31.517-66.121z" fill="#4fabf7"/><path d="M480.055 281.181c-28.579-18.294-65.98-13.409-88.377 10.486a101.328 101.328 0 00-20.044 27.603c-29.532 59.827-65.434 97.023-66.383 98.247h115.103c7.528 0 11.066-9.184 5.578-14.337l-.197-.185c-16.014-15.147-23.209-33.612-23.207-51.438 1.907-41.708 48.577-66.391 84.234-43.566 14.25 9.122 22.849 23.741 24.811 39.311 2.833-25.402-8.535-51.409-31.518-66.121z" fill="#9bd8f9"/><circle cx="482.97" cy="347.636" fill="#9bd8f9" transform="rotate(-24 482.884 347.529)" r="29.03"/><circle cx="487.97" cy="343.799" fill="#c5ebfc" transform="rotate(-76.64 487.87 343.783)" r="14.515"/><path d="M306.263 281.181c-28.579-18.294-65.98-13.409-88.378 10.486a101.328 101.328 0 00-20.044 27.603c-29.532 59.827-65.434 97.023-66.383 98.247H246.56c7.528 0 11.066-9.184 5.578-14.337l-.197-.185c-16.014-15.147-23.209-33.612-23.207-51.438 1.907-41.708 48.577-66.391 84.234-43.566 14.25 9.122 22.849 23.741 24.811 39.311 2.836-25.402-8.533-51.409-31.516-66.121z" fill="#73c3f9"/><path d="M132.471 281.181c-28.579-18.294-65.98-13.409-88.378 10.486a101.328 101.328 0 00-20.044 27.603 432.573 432.573 0 01-9.919 18.879c10.485 29.464 26.444 56.328 46.663 79.368h11.976c7.528 0 11.066-9.184 5.578-14.337l-.197-.185c-16.014-15.147-23.209-33.612-23.207-51.438 1.907-41.708 48.577-66.391 84.234-43.566 14.25 9.122 22.849 23.741 24.811 39.311 2.835-25.402-8.533-51.409-31.517-66.121z" fill="#4fabf7"/><path d="M425.735 402.995c-16.014-15.147-23.209-33.612-23.207-51.438.51-11.15 4.221-21.081 10.063-29.215-27.546 6.507-30.518-19.053-30.59-19.719a101.116 101.116 0 00-10.367 16.647c-29.532 59.827-65.434 97.023-66.383 98.247h115.103c7.528 0 11.066-9.184 5.578-14.337a17.223 17.223 0 01-.197-.185z" fill="#73c3f9"/><path d="M251.943 402.995c-16.014-15.147-23.208-33.612-23.206-51.438.51-11.15 4.221-21.081 10.063-29.215-27.546 6.507-30.518-19.053-30.59-19.719a101.05 101.05 0 00-10.367 16.647c-29.532 59.827-65.434 97.023-66.383 98.247h115.102c7.528 0 11.066-9.184 5.578-14.337a17.223 17.223 0 01-.197-.185z" fill="#4fabf7"/><circle cx="309.178" cy="347.636" fill="#73c3f9" transform="rotate(-23.36 308.962 347.805)" r="29.03"/><circle cx="314.178" cy="343.799" fill="#9bd8f9" transform="rotate(-76.64 314.105 343.77)" r="14.515"/><circle cx="135.386" cy="347.636" fill="#4fabf7" transform="rotate(-45 135.333 347.688)" r="29.03"/><circle cx="140.386" cy="343.799" fill="#73c3f9" transform="rotate(-45 140.333 343.851)" r="14.515"/><path d="M72.769 417.517c7.528 0 11.066-9.184 5.578-14.337l-.197-.185c-16.014-15.147-23.209-33.612-23.207-51.438.497-10.871 4.04-20.582 9.631-28.6-26.886 7.131-30.114-19.737-30.179-20.308a101.125 101.125 0 00-10.347 16.62 432.573 432.573 0 01-9.919 18.879c10.485 29.464 26.444 56.328 46.663 79.368h11.977z" fill="#1e9ef4"/><path d="M480.055 105.582c-28.579-18.294-65.98-13.409-88.377 10.486a101.328 101.328 0 00-20.044 27.603c-29.532 59.827-65.434 97.023-66.383 98.247h115.103c7.528 0 11.066-9.184 5.578-14.337l-.197-.185c-16.014-15.147-23.209-33.612-23.207-51.438 1.907-41.708 48.577-66.39 84.234-43.566 14.25 9.122 22.849 23.741 24.811 39.311 2.833-25.402-8.535-51.409-31.518-66.121z" fill="#9bd8f9"/><circle cx="482.97" cy="172.038" fill="#9bd8f9" transform="rotate(-24 482.874 171.97)" r="29.03"/><circle cx="487.97" cy="168.201" fill="#c5ebfc" transform="rotate(-76.64 487.884 168.211)" r="14.515"/><path d="M306.263 105.582c-28.579-18.294-65.98-13.409-88.378 10.486a101.328 101.328 0 00-20.044 27.603c-29.532 59.827-65.434 97.023-66.383 98.247H246.56c7.528 0 11.066-9.184 5.578-14.337l-.197-.185c-16.014-15.147-23.209-33.612-23.207-51.438 1.907-41.708 48.577-66.39 84.234-43.566 14.25 9.122 22.849 23.741 24.811 39.311 2.836-25.402-8.533-51.409-31.516-66.121zM425.735 227.396c-16.014-15.147-23.209-33.612-23.207-51.438.51-11.15 4.221-21.081 10.063-29.215-27.546 6.507-30.518-19.053-30.59-19.719a101.116 101.116 0 00-10.367 16.647c-29.532 59.827-65.434 97.023-66.383 98.247h115.103c7.528 0 11.066-9.184 5.578-14.337a17.223 17.223 0 01-.197-.185z" fill="#73c3f9"/><path d="M251.943 227.396c-16.014-15.147-23.208-33.612-23.206-51.438.51-11.15 4.221-21.081 10.063-29.215-27.546 6.507-30.518-19.053-30.59-19.719a101.05 101.05 0 00-10.367 16.647c-29.532 59.827-65.434 97.023-66.383 98.247h115.102c7.528 0 11.066-9.184 5.578-14.337a17.223 17.223 0 01-.197-.185z" fill="#4fabf7"/><circle cx="309.178" cy="172.038" fill="#73c3f9" transform="rotate(-23.36 309.065 172.213)" r="29.03"/><circle cx="314.178" cy="168.201" fill="#9bd8f9" transform="rotate(-76.64 314.118 168.198)" r="14.515"/><circle cx="135.386" cy="172.038" fill="#4fabf7" transform="rotate(-45 135.365 172.075)" r="29.03"/><circle cx="140.386" cy="168.201" fill="#73c3f9" transform="rotate(-45 140.366 168.24)" r="14.515"/><path d="M78.151 227.396c-16.014-15.147-23.209-33.612-23.207-51.438.519-11.351 4.359-21.436 10.384-29.651-27.164 4.807-28.65-19.27-28.651-19.283-20.92 33.72-33.884 72.889-36.265 114.894h72.357c7.528 0 11.066-9.184 5.578-14.337a33.296 33.296 0 01-.196-.185z" fill="#1e9ef4"/><circle cx="220.056" cy="458.75" fill="#6289cc" r="8.25"/><circle cx="284.885" cy="63.075" fill="#6289cc" r="8.25"/><g fill="#2a428c"><circle cx="220.056" cy="48.298" transform="rotate(-76.83 219.92 48.313)" r="14.777"/><circle cx="276.635" cy="473.527" transform="rotate(-45 276.57 473.614)" r="14.777"/></g></svg>