<svg xmlns="http://www.w3.org/2000/svg" viewBox="0 0 511.998 511.998"><g fill="#dc691d"><path d="M114.757 317.791a8.825 8.825 0 01-8.201-5.552L61.792 200.316 17.028 312.239c-1.81 4.537-6.947 6.744-11.476 4.926-4.528-1.81-6.727-6.947-4.917-11.476L53.6 173.277a8.82 8.82 0 0116.384 0l52.965 132.411c1.81 4.529-.388 9.666-4.917 11.476a8.695 8.695 0 01-3.275.627zM503.173 317.791a8.826 8.826 0 01-8.201-5.552l-44.773-111.923-44.764 111.923a8.838 8.838 0 01-11.476 4.926c-4.528-1.81-6.727-6.947-4.917-11.476l52.965-132.411c1.342-3.354 4.59-5.552 8.192-5.552s6.85 2.198 8.201 5.552l52.965 132.411c1.81 4.529-.388 9.666-4.917 11.476a8.78 8.78 0 01-3.275.626z"/></g><g fill="#afb6bb"><path d="M255.996 57.867c-6.462 0-12.447-1.863-17.655-4.899v61.792h35.31V52.968c-5.209 3.037-11.185 4.899-17.655 4.899zM238.341 132.415h35.31v317.788h-35.31z"/></g><path d="M388.407 485.512H123.584v-26.509c0-9.737 7.892-17.628 17.628-17.628h229.575c9.728 0 17.62 7.892 17.62 17.628v26.509z" fill="#e7eced"/><path d="M414.889 511.995H97.102v-17.681c0-9.737 7.892-17.628 17.628-17.628h282.54c9.728 0 17.62 7.892 17.62 17.628v17.681z" fill="#afb6bb"/><g fill="#e7eced"><circle cx="255.996" cy="35.313" r="35.31"/><path d="M494.336 141.242h-97.102l-52.965-35.31H167.721l-52.965 35.31H17.655C7.909 141.242 0 149.143 0 158.897c0 9.754 7.909 17.655 17.655 17.655h105.929l52.965-35.31h158.894l52.965 35.31h105.929c9.745 0 17.655-7.901 17.655-17.655-.001-9.754-7.901-17.655-17.656-17.655z"/></g><g fill="#ebba16"><path d="M61.792 397.238C27.718 397.238 0 369.511 0 335.446v-26.482a8.824 8.824 0 018.827-8.827h105.929a8.824 8.824 0 018.827 8.827v26.482c.001 34.065-27.717 61.792-61.791 61.792zM450.199 397.238c-34.074 0-61.792-27.727-61.792-61.792v-26.482a8.824 8.824 0 018.827-8.827h105.929a8.824 8.824 0 018.827 8.827v26.482c.001 34.065-27.717 61.792-61.791 61.792z"/></g></svg>